<?xml version="1.0" standalone="no"?>
<!DOCTYPE svg PUBLIC "-//W3C//DTD SVG 20010904//EN"
 "http://www.w3.org/TR/2001/REC-SVG-20010904/DTD/svg10.dtd">
<svg version="1.0" xmlns="http://www.w3.org/2000/svg"
 width="1032.000000pt" height="1032.000000pt" viewBox="0 0 1032.000000 1032.000000"
 preserveAspectRatio="xMidYMid meet">
<metadata>
Created by potrace 1.11, written by Peter Selinger 2001-2013
</metadata>
<g transform="translate(0.000000,1032.000000) scale(0.100000,-0.100000)"
fill="#000000" stroke="none">
<path d="M19 9598 c9 -18 33 -61 54 -94 20 -34 37 -65 37 -68 0 -4 5 -12 10
-19 18 -21 250 -427 250 -437 0 -6 3 -10 8 -10 4 0 13 -15 21 -32 8 -18 17
-35 20 -38 4 -3 54 -89 113 -191 59 -103 116 -202 127 -220 11 -19 26 -45 34
-59 7 -14 23 -42 35 -62 12 -21 30 -53 41 -70 10 -18 27 -49 37 -68 11 -19 25
-40 32 -48 6 -7 12 -20 12 -28 0 -8 5 -14 10 -14 6 0 10 -4 10 -9 0 -9 53
-106 88 -161 9 -14 17 -27 17 -30 0 -3 8 -16 16 -30 9 -14 35 -59 59 -100 24
-41 50 -86 59 -100 29 -47 72 -125 78 -142 3 -10 9 -18 14 -18 5 0 9 -5 9 -10
0 -6 11 -27 23 -48 13 -20 35 -57 49 -82 36 -65 314 -546 358 -620 15 -25 187
-324 211 -366 12 -21 33 -59 47 -84 14 -25 30 -48 36 -52 6 -4 7 -8 2 -8 -5 0
-2 -8 7 -18 10 -10 14 -22 10 -25 -3 -4 -1 -7 5 -7 7 0 12 -7 12 -15 0 -8 5
-15 10 -15 6 0 10 -4 10 -9 0 -8 143 -262 180 -321 13 -22 69 -118 98 -170 14
-25 32 -57 41 -72 81 -137 121 -210 121 -217 0 -5 3 -11 8 -13 9 -4 102 -164
102 -177 0 -5 4 -11 8 -13 4 -1 36 -52 70 -113 35 -60 67 -117 72 -125 5 -8
26 -44 46 -78 l36 -64 16 24 c9 12 47 61 84 108 38 47 79 98 91 114 12 15 27
33 32 40 6 6 29 36 53 68 24 31 53 67 65 80 12 13 28 36 36 51 8 15 20 27 28
27 7 0 13 5 13 11 0 9 46 71 85 115 6 6 17 21 25 34 8 12 24 32 35 44 42 48
65 76 65 81 0 3 8 13 17 23 10 10 29 33 43 52 14 18 30 38 35 44 6 6 35 43 65
81 30 39 57 72 60 75 3 3 27 34 55 70 27 36 54 70 60 76 5 6 21 26 35 44 14
18 35 44 47 58 19 23 20 39 4 67 -20 36 -13 161 10 176 6 3 10 9 10 13 -3 17
2 25 34 58 47 51 117 82 183 81 55 -1 142 -28 142 -44 0 -6 4 -8 9 -5 18 12
74 -72 96 -144 12 -38 6 -106 -14 -153 l-18 -42 421 -630 c421 -629 421 -629
456 -630 28 0 38 6 57 35 12 19 26 40 30 45 5 6 17 28 28 50 11 22 25 47 31
55 6 8 26 42 44 75 17 33 35 65 40 70 4 6 19 30 32 55 14 25 59 104 101 175
41 72 86 149 99 172 12 22 70 122 128 222 58 100 116 203 130 229 13 26 27 49
30 52 6 5 41 66 127 218 17 32 36 62 42 69 6 7 11 16 11 21 0 4 13 29 29 54
16 25 40 65 53 89 21 38 152 264 178 309 11 19 146 253 172 298 10 18 52 92
93 163 41 71 75 134 75 139 0 6 5 10 10 10 6 0 10 7 10 15 0 8 4 15 9 15 8 0
24 37 22 53 -1 4 3 7 8 7 5 0 18 17 28 38 32 61 86 157 92 162 3 3 21 34 40
70 19 36 37 67 40 70 4 3 15 24 26 47 11 24 23 43 28 43 12 0 8 26 -13 73 -23
51 -32 132 -18 160 5 10 11 27 13 38 9 43 66 101 140 139 62 31 185 11 248
-40 62 -52 90 -110 91 -190 1 -68 1 -68 38 -91 21 -13 38 -27 38 -31 0 -5 5
-8 10 -8 6 0 52 -31 104 -70 51 -38 98 -70 104 -70 5 0 12 -5 14 -12 3 -9 15
-9 49 2 24 8 64 15 87 16 40 1 46 5 73 45 17 24 34 53 40 64 11 25 32 58 40
65 3 3 17 24 30 47 48 83 148 248 159 260 5 7 15 24 22 38 6 14 15 25 20 25 4
0 8 4 8 9 0 12 63 115 72 119 5 2 8 8 8 14 0 6 16 33 35 59 19 27 35 52 35 55
0 3 16 29 35 58 19 29 35 56 35 60 0 7 39 66 51 76 3 3 13 21 22 41 9 20 23
42 32 49 8 7 15 16 15 21 0 4 18 35 40 68 22 33 40 62 40 65 0 2 18 32 40 65
22 33 40 63 40 66 0 3 16 28 35 55 19 27 35 53 35 56 0 4 11 22 25 40 14 18
25 36 25 39 0 4 13 25 29 48 15 23 33 52 40 65 l12 22 -4495 0 -4494 0 17 -32z"/>
<path d="M9172 9542 c-29 -48 -59 -96 -65 -107 -7 -11 -22 -34 -34 -52 -13
-17 -23 -36 -23 -42 0 -6 -4 -11 -10 -11 -5 0 -10 -5 -10 -10 0 -12 -51 -92
-65 -102 -5 -4 -7 -8 -2 -8 4 0 -9 -22 -28 -50 -19 -27 -35 -52 -35 -54 0 -6
-82 -139 -90 -146 -3 -3 -12 -17 -20 -32 -8 -15 -33 -56 -54 -90 -21 -35 -79
-128 -129 -208 -49 -80 -100 -161 -112 -180 -12 -19 -68 -109 -123 -200 -56
-91 -108 -174 -117 -185 -8 -10 -15 -23 -15 -27 0 -5 -5 -14 -10 -21 -6 -7
-34 -50 -63 -97 l-53 -85 20 -40 c25 -54 27 -138 4 -195 -37 -90 -106 -143
-199 -155 -30 -4 -56 -9 -58 -11 -2 -2 -16 3 -32 12 -16 8 -29 12 -29 8 0 -9
-73 38 -98 63 -45 48 -65 104 -65 184 1 41 -3 47 -36 70 -19 13 -43 30 -51 36
-8 7 -64 48 -125 91 -109 79 -110 79 -139 64 -17 -8 -52 -16 -79 -17 -44 -2
-52 -6 -70 -36 -11 -19 -27 -45 -36 -59 -8 -14 -16 -27 -16 -30 0 -3 -13 -24
-28 -47 -15 -24 -27 -47 -27 -51 0 -5 -8 -20 -19 -33 -10 -13 -31 -49 -47 -79
-15 -30 -31 -57 -34 -60 -10 -8 -124 -215 -121 -219 1 -2 -1 -7 -6 -10 -9 -6
-64 -98 -118 -196 -16 -27 -33 -59 -39 -70 -6 -10 -17 -25 -23 -33 -7 -7 -13
-17 -13 -21 0 -5 -24 -49 -54 -98 -29 -50 -57 -100 -61 -111 -3 -12 -10 -22
-15 -22 -5 0 -12 -9 -15 -20 -4 -11 -24 -49 -46 -85 -21 -36 -39 -69 -39 -75
0 -5 -4 -10 -10 -10 -5 0 -10 -4 -10 -10 0 -5 -13 -31 -29 -58 -15 -26 -41
-70 -56 -98 -16 -27 -42 -73 -59 -102 -17 -29 -38 -65 -46 -80 -8 -15 -30 -51
-48 -80 -17 -29 -32 -54 -32 -57 0 -4 -87 -155 -136 -235 -8 -14 -23 -41 -32
-60 -9 -19 -23 -41 -29 -48 -7 -7 -13 -20 -13 -28 0 -8 -4 -14 -10 -14 -5 0
-10 -5 -10 -10 0 -6 -15 -35 -34 -64 -18 -29 -37 -62 -40 -74 -4 -12 -12 -22
-17 -22 -5 0 -9 -6 -9 -14 0 -7 -7 -19 -15 -26 -8 -7 -12 -16 -9 -21 3 -5 1
-9 -3 -9 -5 0 -14 -12 -20 -27 -11 -26 -48 -92 -79 -140 -13 -21 -25 -42 -75
-130 -21 -37 -86 -148 -121 -208 -10 -16 -25 -45 -34 -64 -8 -19 -22 -40 -30
-48 -8 -8 -14 -20 -14 -28 0 -7 -6 -15 -12 -18 -10 -3 -9 -9 4 -23 9 -10 17
-23 17 -29 1 -5 6 -25 12 -44 24 -72 -4 -183 -61 -242 -22 -23 -80 -61 -80
-53 0 3 -6 1 -14 -5 -22 -18 -126 -21 -158 -4 -16 7 -28 11 -28 8 0 -10 -63
37 -88 65 -41 45 -55 83 -58 154 -2 53 2 79 16 109 19 39 19 40 0 67 -11 16
-20 33 -20 38 0 6 -4 12 -9 14 -5 2 -64 86 -131 188 -68 102 -127 187 -131
188 -5 2 -9 8 -9 14 0 6 -19 38 -43 72 -24 33 -46 69 -50 79 -3 9 -11 17 -17
17 -5 0 -10 6 -11 13 0 6 -91 147 -202 311 l-202 300 -57 2 -57 2 -63 -80
c-35 -45 -68 -86 -73 -92 -6 -6 -44 -54 -85 -106 -40 -52 -77 -96 -82 -98 -4
-2 -8 -8 -8 -13 0 -5 -8 -17 -17 -27 -23 -24 -42 -49 -73 -92 -14 -19 -35 -46
-47 -60 -35 -39 -272 -340 -268 -340 2 0 -9 -13 -23 -29 -15 -16 -37 -41 -50
-57 -12 -16 -35 -45 -50 -63 -15 -19 -35 -43 -45 -53 -9 -10 -15 -18 -12 -18
6 0 -7 -17 -36 -48 -20 -21 -163 -203 -172 -219 -4 -6 27 -70 70 -145 42 -73
82 -143 87 -155 6 -13 14 -23 19 -23 4 0 7 -4 7 -10 0 -5 32 -64 72 -132 39
-68 85 -148 101 -178 17 -30 38 -67 49 -82 10 -14 18 -28 18 -31 0 -3 34 -63
76 -133 42 -71 80 -139 85 -151 5 -13 13 -23 19 -23 5 0 10 -7 10 -15 0 -9 11
-32 24 -53 44 -67 246 -423 246 -433 0 -5 5 -9 10 -9 6 0 10 -7 10 -15 0 -8 5
-15 11 -15 5 0 8 -4 5 -9 -3 -5 1 -14 9 -21 8 -7 15 -17 15 -22 0 -6 13 -29
29 -53 16 -24 32 -53 36 -66 4 -12 16 -32 26 -43 11 -11 19 -26 19 -33 0 -7 5
-13 10 -13 6 0 9 -3 8 -7 -1 -5 14 -36 35 -71 20 -35 37 -67 37 -73 0 -5 3 -9
8 -9 4 0 16 -18 26 -40 11 -22 23 -40 28 -40 4 0 8 -7 8 -15 0 -8 16 -39 35
-69 19 -30 35 -58 35 -61 0 -3 11 -22 24 -43 20 -31 183 -312 236 -407 18 -32
171 -298 265 -460 32 -55 92 -158 133 -230 41 -71 81 -141 90 -155 9 -14 17
-27 17 -30 0 -3 8 -16 17 -30 20 -31 127 -217 166 -290 33 -60 48 -71 59 -43
3 10 21 42 40 71 18 28 29 52 25 52 -4 0 -2 4 3 8 6 4 60 93 120 197 59 105
122 212 139 239 17 27 31 51 31 55 0 3 8 17 16 31 29 45 119 202 119 207 0 3
8 17 19 31 10 15 29 47 43 72 74 133 163 286 168 290 3 3 14 21 23 40 10 19
29 53 42 75 14 22 34 59 47 83 12 23 26 42 30 42 5 0 7 4 4 9 -3 5 1 14 9 21
8 7 15 16 15 21 0 4 14 32 31 61 18 29 75 127 127 218 52 91 103 179 113 195
11 17 22 37 26 45 8 17 89 158 103 180 6 8 18 31 28 50 9 19 20 37 23 40 3 3
34 55 69 115 63 110 72 126 137 240 19 33 38 67 43 75 36 58 90 151 90 155 0
3 17 33 38 67 20 35 46 80 57 101 11 20 23 37 28 37 4 0 5 5 2 10 -3 6 -2 10
3 10 5 0 12 8 15 18 4 9 22 44 42 77 20 33 40 69 45 80 6 11 16 29 22 40 37
58 78 126 78 129 0 3 27 50 60 106 33 56 60 105 60 110 0 5 6 15 13 22 11 12
134 222 150 258 4 8 16 29 27 45 11 17 25 41 32 55 7 14 27 48 45 77 18 29 33
54 33 56 0 4 49 89 90 157 5 8 21 38 36 65 14 28 32 57 40 66 8 9 11 19 7 22
-3 4 -1 7 5 7 7 0 12 6 12 14 0 8 3 16 8 18 4 2 16 21 27 43 11 22 22 42 25
45 11 11 100 170 100 180 0 5 4 10 8 10 5 0 14 16 22 35 8 19 17 35 21 35 4 0
10 9 14 19 3 11 17 36 30 55 13 20 22 36 18 36 -3 0 0 7 7 15 17 21 49 76 56
98 4 9 10 17 15 17 5 0 9 4 9 9 0 5 22 47 48 93 27 46 55 94 63 108 8 14 19
28 24 32 6 4 6 8 1 8 -5 0 -2 8 7 18 8 9 27 40 42 67 36 67 58 106 153 269 45
76 82 141 82 144 0 3 11 22 23 41 13 20 42 68 64 106 22 39 62 108 90 155 27
47 52 92 56 100 4 8 18 33 32 55 14 22 30 49 35 60 5 11 21 38 35 60 14 22 28
47 31 55 4 8 13 22 20 30 7 8 14 20 15 25 1 6 13 27 25 47 13 21 24 40 24 43
0 4 47 86 90 155 5 8 21 38 36 65 15 28 29 52 33 55 3 3 13 19 21 35 8 17 32
58 52 93 21 34 38 67 38 72 0 6 5 10 10 10 6 0 10 6 10 14 0 8 6 21 13 28 7 7
18 24 24 38 13 26 21 40 157 273 47 82 86 153 86 158 0 5 5 9 10 9 6 0 10 4
10 10 0 5 20 44 45 86 25 41 45 80 45 85 0 5 5 9 10 9 6 0 10 4 10 9 0 6 38
76 85 156 47 81 85 151 85 156 0 5 4 9 10 9 5 0 12 11 16 25 3 14 10 25 15 25
5 0 9 4 9 10 0 5 35 69 77 142 42 73 99 173 127 221 28 48 56 96 61 105 6 10
23 40 39 67 16 28 37 65 48 83 l20 32 -549 0 -548 0 -53 -88z"/>
</g>
</svg>
